<svg width="56" height="56" viewBox="0 0 56 56" fill="none" xmlns="http://www.w3.org/2000/svg">
<g filter="url(#filter0_d_786_1272)">
<rect x="5" y="1" width="46" height="46" rx="9" fill="#C8E3FF" stroke="#B1DAFF" stroke-width="2"/>
<path d="M36.8589 23.5684C36.8158 23.1372 36.4448 22.8159 36.0047 22.8159H29.4907C29.0161 22.8159 28.6279 23.1964 28.6279 23.6614V25.1073C28.6279 25.5723 29.0161 25.9528 29.4907 25.9528H33.3819C33.2869 26.7307 32.7693 27.906 31.6218 28.6923C30.8884 29.1912 29.9134 29.5379 28.6279 29.5379C28.5675 29.5379 28.5157 29.5379 28.4553 29.5294C26.2552 29.4618 24.3916 28.0159 23.7186 26.0289C23.5374 25.4962 23.4339 24.9382 23.4339 24.3547C23.4339 23.7713 23.5374 23.2048 23.71 22.6806C23.7618 22.5284 23.8222 22.3762 23.8912 22.224C24.6849 20.4738 26.4192 19.2393 28.4553 19.1801C28.5071 19.1716 28.5675 19.1716 28.6279 19.1716C29.8617 19.1716 30.7849 19.569 31.4319 20.0087C31.7684 20.237 32.2171 20.1863 32.5104 19.9072L33.7097 18.7573C34.0893 18.3937 34.0548 17.7765 33.6234 17.4721C32.2516 16.4828 30.5778 15.8994 28.6279 15.8994C28.5675 15.8994 28.5157 15.8994 28.4553 15.9079C25.1509 15.9671 22.3123 17.8441 20.9232 20.5583C20.3365 21.7082 20 22.9934 20 24.3547C20 25.7161 20.3365 27.0013 20.9232 28.1512H20.9318C22.3209 30.8654 25.1595 32.7424 28.4553 32.8016C28.5157 32.8101 28.5675 32.8101 28.6279 32.8101C30.9574 32.8101 32.9159 32.0576 34.3396 30.7639C35.9702 29.2842 36.9107 27.1196 36.9107 24.5408C36.9107 24.1772 36.8934 23.8643 36.8589 23.5684Z" fill="#7BBCFC"/>
</g>
<defs>
<filter id="filter0_d_786_1272" x="0" y="0" width="56" height="56" filterUnits="userSpaceOnUse" color-interpolation-filters="sRGB">
<feFlood flood-opacity="0" result="BackgroundImageFix"/>
<feColorMatrix in="SourceAlpha" type="matrix" values="0 0 0 0 0 0 0 0 0 0 0 0 0 0 0 0 0 0 127 0" result="hardAlpha"/>
<feOffset dy="4"/>
<feGaussianBlur stdDeviation="2"/>
<feComposite in2="hardAlpha" operator="out"/>
<feColorMatrix type="matrix" values="0 0 0 0 0 0 0 0 0 0 0 0 0 0 0 0 0 0 0.25 0"/>
<feBlend mode="normal" in2="BackgroundImageFix" result="effect1_dropShadow_786_1272"/>
<feBlend mode="normal" in="SourceGraphic" in2="effect1_dropShadow_786_1272" result="shape"/>
</filter>
</defs>
</svg>
