<svg width="24" height="23" viewBox="0 0 24 23" fill="none" xmlns="http://www.w3.org/2000/svg">
<g id="vuesax/bold/bag-tick-2">
<g id="bag-tick-2">
<path id="Vector" d="M19.96 8.43525C19.29 7.73861 18.28 7.33381 16.88 7.1926V6.47713C16.88 5.1874 16.3 3.94474 15.28 3.07865C14.25 2.19373 12.91 1.77951 11.52 1.90189C9.12999 2.11842 7.11999 4.29306 7.11999 6.64658V7.1926C5.71999 7.33381 4.70999 7.73861 4.03999 8.43525C3.06999 9.45197 3.09999 10.8076 3.20999 11.749L3.90999 16.9926C4.11999 18.8284 4.90999 20.7112 9.20999 20.7112H14.79C19.09 20.7112 19.88 18.8284 20.09 17.002L20.79 11.7396C20.9 10.8076 20.93 9.45197 19.96 8.43525ZM11.66 3.21045C12.66 3.12572 13.61 3.41756 14.35 4.0483C15.08 4.66963 15.49 5.55455 15.49 6.47713V7.13611H8.50999V6.64658C8.50999 4.97088 9.97999 3.36107 11.66 3.21045ZM12 17.4916C9.90999 17.4916 8.20999 15.8912 8.20999 13.9236C8.20999 11.9561 9.90999 10.3557 12 10.3557C14.09 10.3557 15.79 11.9561 15.79 13.9236C15.79 15.8912 14.09 17.4916 12 17.4916Z" fill="#131313"/>
<path id="Vector_2" d="M11.43 15.6653C11.24 15.6653 11.05 15.5994 10.9 15.4582L9.91 14.5262C9.62 14.2532 9.62 13.8013 9.91 13.5283C10.2 13.2553 10.68 13.2553 10.97 13.5283L11.45 13.9801L13.05 12.5869C13.35 12.3233 13.83 12.3421 14.11 12.6245C14.39 12.9069 14.37 13.3588 14.07 13.6224L11.94 15.477C11.79 15.5994 11.61 15.6653 11.43 15.6653Z" fill="#131313"/>
</g>
</g>
</svg>
